<svg xmlns="http://www.w3.org/2000/svg" width="1024" height="1024" viewBox="0 0 1024 1024" role="img" aria-label="Six Degrees of Anime favicon">
  <defs>
    <linearGradient id="bg" x1="0" y1="0" x2="1" y2="1">
      <stop offset="0%" stop-color="#02101f"/>
      <stop offset="55%" stop-color="#021933"/>
      <stop offset="100%" stop-color="#011227"/>
    </linearGradient>
    <linearGradient id="stripeGrad" x1="0" y1="0" x2="1" y2="0">
      <stop offset="0%" stop-color="#0b2d57" stop-opacity="0"/>
      <stop offset="50%" stop-color="#0b2d57" stop-opacity="0.35"/>
      <stop offset="100%" stop-color="#0b2d57" stop-opacity="0"/>
    </linearGradient>
    <pattern id="stripes" width="28" height="28" patternUnits="userSpaceOnUse">
      <rect width="10" height="28" fill="url(#stripeGrad)" opacity="0.12"/>
    </pattern>
    <filter id="softShadow" x="-20%" y="-20%" width="140%" height="140%">
      <feDropShadow dx="0" dy="4" stdDeviation="10" flood-color="#000" flood-opacity="0.35"/>
    </filter>
  </defs>

  <rect x="56" y="56" width="912" height="912" rx="148" fill="url(#bg)"/>
  <rect x="56" y="56" width="912" height="912" rx="148" fill="url(#stripes)"/>

  <text x="140" y="705"
        fill="#F4F6FA"
        font-size="520"
        font-weight="700"
        font-family="Inter, system-ui, -apple-system, BlinkMacSystemFont, 'Segoe UI', Arial, sans-serif"
        filter="url(#softShadow)">6</text>

  <circle cx="492" cy="390" r="38" fill="none" stroke="#F4F6FA" stroke-width="16"/>

  <g stroke="#F4F6FA" stroke-width="18" stroke-linecap="round" filter="url(#softShadow)">
    <line x1="680" y1="365" x2="565" y2="560"/>
    <line x1="680" y1="365" x2="795" y2="560"/>
    <line x1="565" y1="560" x2="795" y2="560"/>
    <line x1="565" y1="560" x2="495" y2="735"/>
    <line x1="795" y1="560" x2="865" y2="735"/>
  </g>

  <g filter="url(#softShadow)">
    <circle cx="680" cy="365" r="44" fill="#25A8FF"/>
    <circle cx="565" cy="560" r="42" fill="#F5A116"/>
    <circle cx="795" cy="560" r="42" fill="#F5A116"/>
    <circle cx="495" cy="735" r="40" fill="#25A8FF"/>
    <circle cx="865" cy="735" r="40" fill="#25A8FF"/>
  </g>
</svg>
